<svg xmlns="http://www.w3.org/2000/svg" xmlns:xlink="http://www.w3.org/1999/xlink" width="379.71" height="344.956" viewBox="0 0 379.71 344.956"><defs><clipPath id="a"><path d="M0,116.68H379.71V-228.276H0Z" transform="translate(0 228.276)" fill="none"/></clipPath></defs><g transform="translate(0 228.276)"><g transform="translate(0 -228.276)" clip-path="url(#a)"><g transform="translate(129.214 0)"><path d="M20.513,58.514c-.325,0-.642-.05-.966-.05,3.081-3.743,7.755-9.052,10.694-10.687,4.681-2.6,12.494-5.2,16.139-11.2s5.055-14.122-.523-14.841-7.55,2.608-9.63,0S34.769,16,29.982,12.893a18.878,18.878,0,0,0-11.315-2.32,14.553,14.553,0,0,0-4.21,1.445,15,15,0,0,0-2.891-3.9C7.857,4.517-1.244,1.93-.849-2.138c.3-3.045,2.706-5.541,7.917-3.716S16.931-10.9,18.786-16.789s5.724-3.383,8.326-7.551-2.079-4.949-6.247-4.688-5.449-6.233-7.282-4.414-4.026,7.036-6.522,4.189c-2.3-2.631-4.518-6.628-4.209-9.632a49.781,49.781,0,0,1,12.387-2.981c2.5.19,5.351.852,7.191,2.685,1.135,1.136,1.227,2.475,2.256,4.083a4.827,4.827,0,0,0,6.768,1.558c2.235-1.488.966-5.02-1.96-7.763a50.019,50.019,0,0,1,18.2,7.191,10.773,10.773,0,0,1,2.335,4.3c1.3,4.949,4.688,2.087,8.855,5.993S55.5-10.02,57.575-3.773,62.264,5.863,67.728,7.161a6.717,6.717,0,0,0,3.066.091c.008.317.05.621.05.931A50.393,50.393,0,0,1,20.513,58.514m-7.742-.663A50.359,50.359,0,0,1-29.819,8.183,50.2,50.2,0,0,1-12.362-29.845a23.152,23.152,0,0,1-1.763,3.4c-2.474,4.076-4.5,7.071-3.8,15.376.662,7.932,2.812,11.823,5.9,15.362S-5.693,8.2-1,9.508s7.7.846,11.456,4.851c1.206,1.291,1.3,3.695,1.129,5.626-.388,1.6-1.3,2.341-3.208,3.06-3.179,1.191,0,7.028,5.2,11.979,4.414,4.195,4.5,16.969-.8,22.827M25.56-52.237c-1.219-8.369-4.257-20.5-11.8-29.73-6.3-7.707-15.574-10.273-22.7-11.019a39.045,39.045,0,0,0-7.77-.4,4.641,4.641,0,0,1,2.172-.733c9.49-1.572,23.167.635,31.859,12.3a48.483,48.483,0,0,1,5.535,9.744,51.272,51.272,0,0,1,1.91-10.871,55.387,55.387,0,0,0,12.55,1.762S60.163-79.3,70.858-108.99a2.08,2.08,0,0,0-1.664-.31c-1.875.366-4.216-.1-6.684-1.975-4.73-3.581-13.585-3.947-20.917-2.15-11.188,2.729-21.2,9.588-20.861,23.217a44.223,44.223,0,0,1,2.974-4.576c8.694-11.667,22.371-13.875,31.853-12.3a4.688,4.688,0,0,1,2.179.733,39.1,39.1,0,0,0-7.77.394c-7.127.74-16.4,3.306-22.7,11.013A36,36,0,0,0,20.209-79.9C19.265-91.76,9.867-97.9-.567-100.452c-7.332-1.791-16.187-1.425-20.917,2.156-2.475,1.869-4.808,2.335-6.684,1.975a2.04,2.04,0,0,0-1.664.31C-19.138-66.316,3.712-68.2,3.712-68.2a54.344,54.344,0,0,0,13.114-1.918,48.677,48.677,0,0,1,2.814,17.682A60.7,60.7,0,0,0-40.132,8.183a60.645,60.645,0,1,0,121.29,0,60.713,60.713,0,0,0-55.6-60.42" transform="translate(40.132 114.479)" fill="#316355"/></g><g transform="translate(0 249.603)"><path d="M4.948,5.5c3.391,0,5.259-1.389,5.259-3.87,0-2.391-1.437-4.252-5.309-4.252H-.262V5.5Zm-1.339,8.03H-.262V26.668H-9.681V-10.754H5.668c8.221,0,14,3.92,14,12.048,0,5.493-2.771,8.932-6.882,10.6l7.742,14.77H10.49Z" transform="translate(9.681 10.754)" fill="#316355"/></g></g><g transform="translate(37.377 21.329)"><path d="M8.843,0V8.361H-7.979v6.12H7.313v8.08H-7.979v6.45H8.983v8.411H-17.3V0Z" transform="translate(17.3)" fill="#316355"/></g><g transform="translate(0 -228.276)" clip-path="url(#a)"><g transform="translate(69.493 248.985)"><path d="M0,8.988l8.461-2.01c.62,4.5,3.87,6.07,7.261,6.07s4.639-2.008,4.639-3.532c0-1.291-.762-2.539-3.2-3.018L12,5.5C5.83,4.306,1.481.436,1.481-5.493c0-7.12,6.451-12.091,13.768-12.091,9.363,0,13.235,5.88,13.952,10.8L20.89-4.443C20.453-7.5,18.591-9.7,15.2-9.7c-2.968,0-4.351,1.96-4.351,3.441a3.01,3.01,0,0,0,2.771,3.108l5.351,1C26-.762,29.872,3.539,29.872,9.086c0,6.07-5.26,11.9-14.193,11.9-9.369,0-14.439-4.929-15.68-12" transform="translate(0 17.584)" fill="#316355"/></g><g transform="translate(107.058 249.605)"><path d="M3.183,5.578h4.5c3.439,0,5.251-1.389,5.251-3.97,0-2.489-1.431-4.251-5.3-4.251H3.183ZM-6.228,26.51V-10.913H8.394c7.988,0,14.008,3.872,14.008,12.14,0,8.511-6.5,12.381-14.579,12.381H3.183v12.9Z" transform="translate(6.228 10.913)" fill="#316355"/></g><g transform="translate(140.56 248.983)"><path d="M6.61,10.07c5.739,0,9.948-4.97,9.948-10.511S12.3-10.91,6.61-10.91-3.33-5.982-3.33-.441.929,10.07,6.61,10.07m.1-29.772A19.139,19.139,0,0,1,26.16-.533,19.4,19.4,0,0,1,6.61,18.918,19.278,19.278,0,0,1-12.933-.393,19.389,19.389,0,0,1,6.709-19.7" transform="translate(12.933 19.702)" fill="#316355"/></g></g><g transform="translate(187.201 21.331)"><path d="M3.186,5.027h-.05v22.56H-6.233V-9.835H4.186L17.956,11.238h.05V-9.835h9.363V27.587H17.858Z" transform="translate(6.233 9.835)" fill="#316355"/></g><g transform="translate(0 -228.276)" clip-path="url(#a)"><g transform="translate(227.924 248.985)"><path d="M0,8.988l8.461-2.01c.62,4.5,3.87,6.07,7.261,6.07s4.639-2.008,4.639-3.532c0-1.291-.762-2.539-3.2-3.018L12,5.5C5.83,4.306,1.481.436,1.481-5.493c0-7.12,6.451-12.091,13.768-12.091,9.363,0,13.235,5.88,13.952,10.8L20.89-4.443C20.459-7.5,18.591-9.7,15.2-9.7c-2.968,0-4.351,1.96-4.351,3.441a3.01,3.01,0,0,0,2.771,3.108l5.351,1C26-.762,29.872,3.539,29.872,9.086c0,6.07-5.26,11.9-14.193,11.9-9.369,0-14.439-4.929-15.68-12" transform="translate(0 17.584)" fill="#316355"/></g></g><path d="M185.152-25.677h-9.461V-63.1h9.461Z" transform="translate(89.802 84.428)" fill="#316355"/><g transform="translate(0 -228.276)" clip-path="url(#a)"><g transform="translate(284.557 249.606)"><path d="M5.432,7.533H-1.5v7.03h6.98c2.389,0,4.251-1.15,4.251-3.539s-2.01-3.491-4.3-3.491M3.853-6.659H-1.5V.074H3.951c2.722,0,4.2-1.291,4.2-3.391,0-2.291-1.671-3.343-4.3-3.343m1.96,29.343H-10.628V-14.738h16.2c3.539,0,7.17,1.148,9.461,3.489a9.221,9.221,0,0,1,2.489,6.4c0,3.779-2.389,6.551-5.97,8.032v.141a8.577,8.577,0,0,1,7.592,8.8c0,7.361-6.4,10.561-13.331,10.561" transform="translate(10.628 14.738)" fill="#316355"/></g></g><g transform="translate(321.835 21.329)"><path d="M0,0H9.419V28.822H25.141v8.6H0Z" fill="#316355"/></g><g transform="translate(353.427 21.329)"><path d="M0,0V37.422H26.283V29.012H9.321V22.561H24.612v-8.08H9.321V8.361H26.143V0Z" fill="#316355"/></g><g transform="translate(66.336 78.681)"><path d="M0,0V37.422H9.369V23.611H24.421v-8.27H9.369V8.552H26V0Z" fill="#316355"/></g><g transform="translate(93.338 78.679)"><path d="M4.868,0-9.523,37.422H.369L2.858,30.54H17.291l2.58,6.882h9.989L15.477,0Zm5.21,10.61,4.539,11.95H5.629Z" transform="translate(9.523)" fill="#316355"/></g><g transform="translate(0 -228.276)" clip-path="url(#a)"><g transform="translate(134.968 306.336)"><path d="M0,8.988l8.461-2.01c.62,4.5,3.87,6.07,7.261,6.07s4.639-2,4.639-3.532c0-1.291-.762-2.539-3.2-3.018L12,5.5C5.83,4.306,1.481.429,1.481-5.493c0-7.12,6.451-12.091,13.768-12.091,9.363,0,13.235,5.88,13.952,10.8L20.89-4.443C20.459-7.5,18.591-9.7,15.2-9.7c-2.962,0-4.351,1.96-4.351,3.441a3.009,3.009,0,0,0,2.771,3.108l5.351,1C26-.762,29.872,3.539,29.872,9.086c0,6.064-5.26,11.9-14.193,11.9-9.369,0-14.439-4.929-15.68-12" transform="translate(0 17.584)" fill="#316355"/></g></g><g transform="translate(172.536 78.677)"><path d="M7.872,0V14.15H-5.988V0H-15.4V37.429h9.413V22.85H7.872V37.429h9.461V0Z" transform="translate(15.401)" fill="#316355"/></g><path d="M142.2,12.276h9.46V-25.146H142.2Z" transform="translate(72.682 103.827)" fill="#316355"/><g transform="translate(0 -228.276)" clip-path="url(#a)"><g transform="translate(231.844 306.335)"><path d="M6.61,10.07c5.739,0,9.948-4.97,9.948-10.511S12.3-10.912,6.61-10.912-3.33-5.982-3.33-.441.929,10.07,6.61,10.07m.1-29.772A19.137,19.137,0,0,1,26.16-.541,19.4,19.4,0,0,1,6.61,18.918,19.278,19.278,0,0,1-12.933-.393,19.389,19.389,0,0,1,6.709-19.7" transform="translate(12.933 19.702)" fill="#316355"/></g></g><g transform="translate(278.484 78.682)"><path d="M8.2,0V21.073H8.15L-5.619,0H-16.04V37.422h9.369V14.86h.051L8.051,37.422h9.511V0Z" transform="translate(16.04)" fill="#316355"/></g></g></svg>